<?xml version="1.0" encoding="utf-8"?>
<!-- Generator: Adobe Illustrator 21.0.0, SVG Export Plug-In . SVG Version: 6.00 Build 0)  -->
<svg version="1.1" id="Слой_1" xmlns="http://www.w3.org/2000/svg" xmlns:xlink="http://www.w3.org/1999/xlink" x="0px" y="0px"
	 viewBox="0 0 64 45.3" style="enable-background:new 0 0 64 45.3;" xml:space="preserve">
<style type="text/css">
	.st0{clip-path:url(#SVGID_2_);}
	.st1{opacity:0.7;clip-path:url(#SVGID_4_);}
	.st2{clip-path:url(#SVGID_6_);fill:#2B1C12;}
	.st3{clip-path:url(#SVGID_4_);fill:#FFFFFF;}
</style>
<g>
	<defs>
		<rect id="SVGID_1_" width="64" height="45.3"/>
	</defs>
	<clipPath id="SVGID_2_">
		<use xlink:href="#SVGID_1_"  style="overflow:visible;"/>
	</clipPath>
	<g class="st0">
		<defs>
			<rect id="SVGID_3_" y="0" width="64" height="45.3"/>
		</defs>
		<clipPath id="SVGID_4_">
			<use xlink:href="#SVGID_3_"  style="overflow:visible;"/>
		</clipPath>
		<g class="st1">
			<g>
				<defs>
					<rect id="SVGID_5_" x="-9" y="-7" width="82" height="53.3"/>
				</defs>
				<clipPath id="SVGID_6_">
					<use xlink:href="#SVGID_5_"  style="overflow:visible;"/>
				</clipPath>
				<path class="st2" d="M41.7,23.5l-17.5,8.3c-0.5,0.2-1-0.1-1-0.6V14c0-0.5,0.6-0.9,1-0.6l17.5,8.9C42.2,22.5,42.2,23.3,41.7,23.5
					 M50.7,0H13.3C5.9,0,0,5.9,0,13.3V32c0,7.3,5.9,13.3,13.3,13.3h37.4C58,45.3,64,39.3,64,32V13.3C64,5.9,58,0,50.7,0"/>
			</g>
		</g>
		<path class="st3" d="M41.7,23.5l-17.5,8.3c-0.5,0.2-1-0.1-1-0.6V14c0-0.5,0.6-0.9,1-0.6l17.5,8.9C42.2,22.5,42.2,23.3,41.7,23.5"
			/>
	</g>
</g>
</svg>
