<svg id="Слой_1" data-name="Слой 1" xmlns="http://www.w3.org/2000/svg" xmlns:xlink="http://www.w3.org/1999/xlink" viewBox="0 0 35.3 22.77"><defs><style>.cls-1{fill:none;}.cls-2{clip-path:url(#clip-path);}.cls-3{fill:#fff;}</style><clipPath id="clip-path" transform="translate(0 0)"><rect class="cls-1" width="35.3" height="22.77"/></clipPath></defs><title>send</title><g class="cls-2"><path class="cls-3" d="M31.41,20.5H8.75a1.68,1.68,0,0,1-1.66-1.7V17.32h4.2a1.14,1.14,0,0,0,0-2.27H7.08V5l10.12,7.58a4.81,4.81,0,0,0,5.74,0L33.07,5V18.8a1.68,1.68,0,0,1-1.66,1.7m0-18.22a1.63,1.63,0,0,1,1,.38l-10.82,8.1a2.61,2.61,0,0,1-3.1,0L7.7,2.65a1.63,1.63,0,0,1,1-.38Zm0-2.28H8.75A3.94,3.94,0,0,0,4.85,4V9.71H1.12a1.14,1.14,0,0,0,0,2.28H4.85V15H3a1.14,1.14,0,0,0,0,2.27H4.85V18.8a3.94,3.94,0,0,0,3.89,4H31.41a3.94,3.94,0,0,0,3.89-4V4a3.94,3.94,0,0,0-3.89-4" transform="translate(0 0)"/></g></svg>