<svg id="Слой_1" xmlns="http://www.w3.org/2000/svg" xmlns:xlink="http://www.w3.org/1999/xlink" viewBox="0 0 64 45.3"><style>.st0{clip-path:url(#SVGID_2_)}.st1{opacity:.7;clip-path:url(#SVGID_4_)}.st2{clip-path:url(#SVGID_6_);fill:#2b1c12}.st3{clip-path:url(#SVGID_4_);fill:#fff}</style><defs><path id="SVGID_1_" d="M0 0h64v45.3H0z"/></defs><clipPath id="SVGID_2_"><use xlink:href="#SVGID_1_" overflow="visible"/></clipPath><g class="st0"><defs><path id="SVGID_3_" d="M0 0h64v45.3H0z"/></defs><clipPath id="SVGID_4_"><use xlink:href="#SVGID_3_" overflow="visible"/></clipPath><g class="st1"><defs><path id="SVGID_5_" d="M-9-7h82v53.3H-9z"/></defs><clipPath id="SVGID_6_"><use xlink:href="#SVGID_5_" overflow="visible"/></clipPath><path class="st2" d="M41.7 23.5l-17.5 8.3c-.5.2-1-.1-1-.6V14c0-.5.6-.9 1-.6l17.5 8.9c.5.2.5 1 0 1.2m9-23.5H13.3C5.9 0 0 5.9 0 13.3V32c0 7.3 5.9 13.3 13.3 13.3h37.4C58 45.3 64 39.3 64 32V13.3C64 5.9 58 0 50.7 0"/></g><path class="st3" d="M41.7 23.5l-17.5 8.3c-.5.2-1-.1-1-.6V14c0-.5.6-.9 1-.6l17.5 8.9c.5.2.5 1 0 1.2"/></g></svg>