<svg id="Слой_1" data-name="Слой 1" xmlns="http://www.w3.org/2000/svg" viewBox="0 0 35.3 22.77"><defs><style>.cls-1{fill:none}.cls-2{clip-path:url(#clip-path)}.cls-3{fill:#fff}</style><clipPath id="clip-path"><path class="cls-1" d="M0 0h35.3v22.77H0z"/></clipPath></defs><title>send</title><g class="cls-2"><path class="cls-3" d="M31.41 20.5H8.75a1.68 1.68 0 0 1-1.66-1.7v-1.48h4.2a1.14 1.14 0 0 0 0-2.27H7.08V5l10.12 7.58a4.81 4.81 0 0 0 5.74 0L33.07 5v13.8a1.68 1.68 0 0 1-1.66 1.7m0-18.22a1.63 1.63 0 0 1 1 .38l-10.82 8.1a2.61 2.61 0 0 1-3.1 0L7.7 2.65a1.63 1.63 0 0 1 1-.38zm0-2.28H8.75a3.94 3.94 0 0 0-3.9 4v5.71H1.12a1.14 1.14 0 0 0 0 2.28h3.73V15H3a1.14 1.14 0 0 0 0 2.27h1.85v1.53a3.94 3.94 0 0 0 3.89 4h22.67a3.94 3.94 0 0 0 3.89-4V4a3.94 3.94 0 0 0-3.89-4"/></g></svg>