<?xml version="1.0" standalone="no"?>
<!DOCTYPE svg PUBLIC "-//W3C//DTD SVG 20010904//EN"
 "http://www.w3.org/TR/2001/REC-SVG-20010904/DTD/svg10.dtd">
<svg version="1.0" xmlns="http://www.w3.org/2000/svg"
 width="16.000000pt" height="16.000000pt" viewBox="0 0 16.000000 16.000000"
 preserveAspectRatio="xMidYMid meet">
<metadata>
Created by potrace 1.11, written by Peter Selinger 2001-2013
</metadata>
<g transform="translate(0.000000,16.000000) scale(0.007656,-0.007656)"
fill="#000000" stroke="none">
<path d="M760 1458 c0 -4 9 -22 19 -40 46 -79 52 -231 11 -300 -38 -65 -73
-53 -73 24 0 46 2 47 -50 -27 -21 -30 -57 -34 -57 -6 0 10 9 30 20 44 39 49
19 65 -23 18 -22 -25 -31 -29 -60 -24 -28 4 -37 1 -50 -18 -20 -28 -5 -53 30
-46 13 2 23 -1 23 -8 0 -13 -37 -55 -49 -55 -15 0 -33 28 -35 55 -6 52 -30 45
-39 -12 -7 -43 -34 -86 -48 -78 -14 9 -11 92 4 98 10 4 9 6 0 6 -17 1 -16 30
1 50 20 24 35 76 26 91 -13 21 -38 -5 -46 -49 -3 -20 -12 -40 -18 -46 -7 -5
-18 -20 -25 -32 -6 -13 -15 -23 -19 -23 -14 0 -14 93 0 101 10 7 10 9 0 9 -7
0 -17 10 -22 23 -6 15 -9 -5 -9 -70 l-1 -92 -37 -26 c-21 -14 -43 -25 -50 -25
-7 0 -13 -4 -13 -10 0 -15 15 -12 55 12 31 17 38 19 46 7 8 -12 14 -69 10 -92
-1 -5 2 -6 7 -3 5 3 10 34 11 68 1 47 6 66 19 76 15 12 17 9 20 -35 6 -82 35
-94 88 -38 18 19 36 31 39 25 3 -5 3 -14 0 -20 -3 -5 -2 -10 4 -10 5 0 17 -3
25 -6 12 -5 15 -2 10 10 -4 10 -1 16 9 16 22 0 67 62 67 91 l0 24 13 -25 c17
-34 46 -36 78 -6 l26 24 12 -24 c8 -17 19 -24 39 -24 23 0 35 9 58 43 27 39
29 48 29 142 0 83 -4 107 -22 140 -24 44 -52 84 -53 73z m-215 -338 c3 -6 -4
-10 -17 -10 -18 0 -20 2 -8 10 19 12 18 12 25 0z"/>
<path d="M1302 1409 c-18 -5 -30 -13 -28 -18 3 -4 -8 -18 -24 -30 -17 -12 -30
-27 -30 -34 0 -6 6 -2 14 9 8 11 39 33 69 48 49 26 59 28 96 18 36 -9 40 -8
30 4 -13 16 -76 17 -127 3z"/>
<path d="M1468 1378 c6 -6 18 -8 28 -6 14 3 12 5 -9 10 -19 3 -25 2 -19 -4z"/>
<path d="M1661 1263 c12 -20 21 -23 69 -21 l55 2 -50 3 c-28 3 -58 12 -69 21
-18 16 -18 16 -5 -5z"/>
<path d="M1071 1233 c0 -7 -1 -16 -2 -20 0 -5 -7 -23 -15 -42 -8 -19 -12 -36
-10 -39 9 -8 37 72 33 93 -2 11 -5 14 -6 8z"/>
<path d="M1001 1123 c-1 -27 3 -33 19 -33 11 0 20 4 20 10 0 5 -6 7 -14 4 -10
-4 -16 3 -19 23 -4 27 -4 27 -6 -4z"/>
<path d="M1757 1114 c-16 -13 -36 -23 -45 -20 -19 6 -61 -27 -84 -65 -9 -13
-16 -49 -16 -79 l-1 -55 12 51 c15 65 42 102 90 121 20 8 37 19 37 25 0 5 6 6
13 2 6 -4 9 -3 4 1 -4 5 0 17 10 27 23 25 13 22 -20 -8z m-47 -29 c0 -2 -10
-10 -22 -16 -21 -11 -22 -11 -9 4 13 16 31 23 31 12z"/>
<path d="M95 1090 c-3 -5 -1 -10 4 -10 6 0 11 5 11 10 0 6 -2 10 -4 10 -3 0
-8 -4 -11 -10z"/>
<path d="M215 1090 c-3 -5 -1 -10 4 -10 6 0 11 5 11 10 0 6 -2 10 -4 10 -3 0
-8 -4 -11 -10z"/>
<path d="M916 1041 c-24 -26 -45 -88 -46 -132 0 -20 -7 -42 -15 -49 -17 -14
-20 -40 -4 -40 5 0 8 4 4 9 -3 5 -1 12 5 16 6 3 9 -4 8 -17 -2 -39 74 -239 87
-226 2 1 -7 35 -21 73 -25 74 -30 105 -16 105 14 0 10 33 -5 48 -20 20 -16 52
6 52 11 0 23 5 27 11 5 8 -1 10 -20 7 -24 -5 -26 -3 -26 34 0 42 23 108 43
120 8 5 8 8 1 8 -6 0 -19 -9 -28 -19z"/>
<path d="M731 1020 c-23 -17 -54 -51 -69 -75 -17 -28 -35 -45 -47 -46 -18 -1
-18 -2 -2 -6 13 -3 16 -10 11 -21 -3 -10 -9 -27 -11 -39 -3 -13 -8 -23 -12
-23 -12 0 -6 -177 7 -193 38 -45 101 -7 148 89 26 54 37 59 47 19 3 -11 5 6 6
38 1 41 4 56 13 51 6 -4 8 -3 4 4 -3 6 -1 54 5 106 9 75 9 99 -1 111 -19 23
-53 18 -99 -15z m97 -20 c2 -19 0 -21 -7 -11 -7 12 -13 12 -24 3 -12 -11 -28
-58 -26 -78 0 -4 -5 -11 -13 -15 -11 -7 -11 -9 1 -9 37 0 -23 -190 -78 -247
-28 -30 -39 -29 -52 5 -30 78 40 287 119 358 36 32 76 28 80 -6z"/>
<path d="M685 810 c-16 -7 -14 -8 12 -7 18 1 33 5 33 10 0 9 -19 8 -45 -3z"/>
<path d="M19 1029 c-7 -4 -6 -8 3 -11 8 -3 22 0 32 8 17 12 17 13 -3 11 -12
-1 -27 -4 -32 -8z"/>
<path d="M1500 953 c-92 -101 -130 -111 -130 -36 0 30 -2 34 -15 23 -8 -7 -15
-18 -15 -25 0 -7 -9 -23 -20 -36 l-19 -24 -1 23 c0 34 27 80 58 96 18 10 21
15 10 16 -33 0 -50 -14 -104 -86 -30 -41 -61 -74 -69 -74 -26 0 -18 62 16 116
l31 49 -27 -25 c-34 -30 -67 -102 -59 -124 17 -45 64 -40 103 10 15 20 21 22
21 10 0 -25 36 -19 59 10 14 18 21 21 21 12 0 -23 26 -41 49 -33 19 6 91 75
131 128 36 46 15 30 -40 -30z"/>
<path d="M1090 970 c-9 -6 -10 -10 -3 -10 6 0 15 5 18 10 8 12 4 12 -15 0z"/>
<path d="M998 933 c-20 -13 -28 -28 -33 -63 -6 -46 5 -92 24 -105 9 -5 13 2
13 25 0 3 -2 29 -6 58 -6 47 -4 55 18 77 29 29 23 32 -16 8z"/>
<path d="M1070 904 c-15 -39 -12 -100 5 -114 9 -7 18 -10 22 -6 3 3 1 6 -6 6
-9 0 -12 19 -9 70 2 39 2 70 0 70 -1 0 -7 -12 -12 -26z"/>
<path d="M1616 856 c-4 -20 -19 -50 -33 -68 l-27 -33 32 29 c29 27 53 89 39
102 -2 3 -8 -11 -11 -30z"/>
<path d="M445 820 c-3 -5 -1 -10 4 -10 6 0 11 5 11 10 0 6 -2 10 -4 10 -3 0
-8 -4 -11 -10z"/>
<path d="M1510 689 c0 -5 -4 -8 -9 -5 -5 4 -7 -3 -4 -14 6 -22 23 -26 41 -8 8
8 9 15 1 25 -14 16 -29 17 -29 2z m20 -19 c0 -5 -4 -10 -10 -10 -5 0 -10 5
-10 10 0 6 5 10 10 10 6 0 10 -4 10 -10z"/>
</g>
</svg>
